<svg width="82" height="67" viewBox="0 0 82 67" fill="none" xmlns="http://www.w3.org/2000/svg">
<path d="M48.8147 56.81C43.5947 62.99 36.8447 66.08 28.5647 66.08C20.2847 66.08 13.5647 62.99 8.40469 56.81C3.24469 50.63 0.664688 42.86 0.664688 33.5C0.664688 24.2 3.27469 16.46 8.49469 10.28C13.7147 4.04 20.4647 0.919999 28.7447 0.919999C36.9647 0.919999 43.6547 4.01 48.8147 10.19C54.0347 16.37 56.6447 24.14 56.6447 33.5C56.6447 42.8 54.0347 50.57 48.8147 56.81ZM18.6647 47.9C21.2447 51.68 24.6047 53.57 28.7447 53.57C32.8847 53.57 36.1847 51.71 38.6447 47.99C41.1647 44.21 42.4247 39.38 42.4247 33.5C42.4247 27.74 41.1347 22.97 38.5547 19.19C35.9747 15.35 32.6447 13.43 28.5647 13.43C24.4847 13.43 21.1847 15.32 18.6647 19.1C16.1447 22.82 14.8847 27.62 14.8847 33.5C14.8847 39.32 16.1447 44.12 18.6647 47.9ZM69.6349 55.352C68.8669 56.184 67.8829 56.6 66.6829 56.6C65.4829 56.6 64.5069 56.192 63.7549 55.376C63.0029 54.544 62.6269 53.52 62.6269 52.304C62.6269 51.088 63.0109 50.072 63.7789 49.256C64.5469 48.424 65.5309 48.008 66.7309 48.008C67.9309 48.008 68.9069 48.424 69.6589 49.256C70.4109 50.072 70.7869 51.088 70.7869 52.304C70.7869 53.504 70.4029 54.52 69.6349 55.352ZM64.3069 65L76.5709 48.2H79.4269L67.1629 65H64.3069ZM79.9549 63.944C79.1869 64.776 78.2029 65.192 77.0029 65.192C75.8029 65.192 74.8269 64.784 74.0749 63.968C73.3229 63.136 72.9469 62.112 72.9469 60.896C72.9469 59.68 73.3309 58.664 74.0989 57.848C74.8669 57.016 75.8509 56.6 77.0509 56.6C78.2509 56.6 79.2269 57.016 79.9789 57.848C80.7309 58.664 81.1069 59.68 81.1069 60.896C81.1069 62.096 80.7229 63.112 79.9549 63.944ZM66.7309 54.416C67.2109 54.416 67.5869 54.216 67.8589 53.816C68.1309 53.4 68.2669 52.896 68.2669 52.304C68.2669 51.728 68.1149 51.232 67.8109 50.816C67.5229 50.4 67.1469 50.192 66.6829 50.192C66.2029 50.192 65.8269 50.392 65.5549 50.792C65.2829 51.192 65.1469 51.696 65.1469 52.304C65.1469 52.88 65.2909 53.376 65.5789 53.792C65.8829 54.208 66.2669 54.416 66.7309 54.416ZM77.0509 63.008C77.5309 63.008 77.9069 62.808 78.1789 62.408C78.4509 61.992 78.5869 61.488 78.5869 60.896C78.5869 60.32 78.4349 59.824 78.1309 59.408C77.8429 58.992 77.4669 58.784 77.0029 58.784C76.5229 58.784 76.1469 58.984 75.8749 59.384C75.6029 59.784 75.4669 60.288 75.4669 60.896C75.4669 61.472 75.6109 61.968 75.8989 62.384C76.2029 62.8 76.5869 63.008 77.0509 63.008Z" fill="#333333"/>
</svg>
