<svg width="50" height="50" viewBox="0 0 50 50" fill="none" xmlns="http://www.w3.org/2000/svg">
<circle cx="25" cy="25" r="25" fill="#842231"/>
<g clip-path="url(#clip0_111_214)">
<path d="M26.9672 17.075L34.4353 24.5422L14.4583 24.5422C14.2052 24.5422 14 24.7474 14 25.0005C14 25.2536 14.2052 25.4589 14.4583 25.4589L34.4353 25.4589L26.9672 32.926C26.7913 33.1081 26.7964 33.3982 26.9784 33.5741C27.156 33.7456 27.4376 33.7456 27.6152 33.5741L35.8652 25.3241C36.0444 25.1454 36.0448 24.8551 35.866 24.6759C35.8658 24.6757 35.8655 24.6754 35.8652 24.6751L27.6152 16.4251C27.4331 16.2492 27.143 16.2543 26.9671 16.4364C26.7955 16.614 26.7955 16.8956 26.9671 17.0732L26.9672 17.075Z" fill="#FFC107"/>
<path d="M36.0003 25.0004C36.0005 25.1221 35.9523 25.2388 35.8664 25.3249L27.6164 33.5749C27.4343 33.7508 27.1441 33.7457 26.9683 33.5637C26.7967 33.3861 26.7967 33.1045 26.9683 32.9269L34.8938 25.0005L26.9683 17.075C26.7924 16.8929 26.7975 16.6028 26.9795 16.4269C27.1572 16.2553 27.4387 16.2553 27.6164 16.4269L35.8664 24.6769C35.9521 24.7627 36.0002 24.8791 36.0003 25.0004Z" fill="white"/>
<path d="M36 25.0005C36 25.2536 35.7948 25.4589 35.5417 25.4589L14.4583 25.4589C14.2052 25.4588 14 25.2536 14 25.0005C14 24.7474 14.2052 24.5421 14.4583 24.5421L35.5417 24.5421C35.7948 24.5421 36 24.7474 36 25.0005Z" fill="white"/>
</g>
<defs>
<clipPath id="clip0_111_214">
<rect width="22" height="22" fill="white" transform="translate(14 36) rotate(-90)"/>
</clipPath>
</defs>
</svg>
