<svg width="1440" height="156" viewBox="0 0 1440 156" fill="none" xmlns="http://www.w3.org/2000/svg">
<path opacity="0.05" d="M111.587 4.391V152H76.655V31.229H32.777V152H-2.155V4.391H111.587ZM198.93 0.769992C219.946 0.769992 236.276 7.51499 247.92 21.005C259.706 34.495 265.599 53.523 265.599 78.089C265.599 94.135 262.901 107.98 257.505 119.624C252.251 131.268 244.583 140.214 234.501 146.462C224.561 152.568 212.704 155.621 198.93 155.621C185.156 155.621 173.299 152.568 163.359 146.462C153.419 140.356 145.751 131.552 140.355 120.05C135.101 108.406 132.474 94.419 132.474 78.089C132.474 62.185 135.101 48.411 140.355 36.767C145.751 25.123 153.419 16.248 163.359 10.142C173.299 3.89399 185.156 0.769992 198.93 0.769992ZM198.93 26.33C188.848 26.33 181.322 30.448 176.352 38.684C171.524 46.778 169.11 59.913 169.11 78.089C169.11 96.265 171.595 109.471 176.565 117.707C181.535 125.943 188.99 130.061 198.93 130.061C209.154 130.061 216.68 126.014 221.508 117.92C226.478 109.684 228.963 96.407 228.963 78.089C228.963 59.771 226.478 46.565 221.508 38.471C216.538 30.377 209.012 26.33 198.93 26.33ZM390.717 4.391V152H355.785V97.472C350.815 101.306 345.703 104.146 340.449 105.992C335.337 107.838 329.515 108.761 322.983 108.761C308.641 108.761 297.423 104.217 289.329 95.129C281.235 86.041 277.188 73.687 277.188 58.067V4.391H311.694V57.641C311.694 66.303 313.398 72.693 316.806 76.811C320.214 80.787 325.61 82.775 332.994 82.775C342.366 82.775 349.963 80.006 355.785 74.468V4.391H390.717ZM508.962 4.391L505.341 29.312H453.369V64.67H498.738V89.165H453.369V126.866H508.962V152H418.437V4.391H508.962ZM677.097 152H642.804L640.248 94.277C639.538 80.503 639.183 68.22 639.183 57.428C639.183 49.192 639.396 41.382 639.822 33.998L617.031 136.451H584.016L559.734 33.998C560.586 46.352 561.012 57.996 561.012 68.93C561.012 77.166 560.799 85.757 560.373 94.703L557.817 152H523.737L534.813 4.391H578.904L601.056 104.501L621.717 4.391H666.021L677.097 152ZM771.271 107.909C767.011 119.411 762.112 128.428 756.574 134.96C751.178 141.492 744.646 146.32 736.978 149.444C729.452 152.568 719.938 154.627 708.436 155.621L703.75 132.191C713.122 131.055 720.293 129.138 725.263 126.44C730.233 123.6 734.422 119.127 737.83 113.021H726.754L681.598 4.391H717.382L748.267 93.212L775.318 4.391H810.676L771.271 107.909ZM985.22 152H940.703L898.103 37.619C899.523 48.837 900.588 58.777 901.298 67.439C902.15 75.959 902.576 86.112 902.576 97.898V152H871.478V4.391H914.93L958.595 118.985C955.471 99.531 953.909 81.213 953.909 64.031V4.391H985.22V152ZM1125.82 103.01C1125.82 113.092 1123.62 122.109 1119.22 130.061C1114.96 138.013 1108.49 144.261 1099.83 148.805C1091.17 153.349 1080.59 155.621 1068.1 155.621C1049.35 155.621 1035.08 150.864 1025.28 141.35C1015.48 131.836 1010.59 119.056 1010.59 103.01V4.391H1045.52V101.519C1045.52 111.033 1047.29 118.133 1050.84 122.819C1054.53 127.363 1060.29 129.635 1068.1 129.635C1076.05 129.635 1081.8 127.363 1085.35 122.819C1089.04 118.133 1090.89 111.033 1090.89 101.519V4.391H1125.82V103.01ZM1200.02 95.555H1186.39V152H1151.46V4.391H1199.81C1219.97 4.391 1235.09 8.083 1245.18 15.467C1255.4 22.851 1260.51 34.14 1260.51 49.334C1260.51 58.848 1258.24 66.8 1253.7 73.19C1249.15 79.438 1241.98 84.763 1232.18 89.165L1269.67 152H1230.27L1200.02 95.555ZM1186.39 71.486H1201.09C1208.9 71.486 1214.72 69.711 1218.55 66.161C1222.53 62.611 1224.52 57.002 1224.52 49.334C1224.52 42.234 1222.39 37.051 1218.13 33.785C1214.01 30.519 1207.62 28.886 1198.96 28.886H1186.39V71.486ZM1360.66 152L1352.99 120.263H1309.97L1302.51 152H1266.3L1310.82 4.391H1353.21L1397.72 152H1360.66ZM1315.93 94.916H1347.03L1331.48 29.738L1315.93 94.916ZM1549.62 4.391L1546 29.312H1494.03V64.67H1539.4V89.165H1494.03V126.866H1549.62V152H1459.1V4.391H1549.62ZM1606.15 4.391V124.31H1663.66L1660.04 152H1571.22V4.391H1606.15ZM1715.35 4.391V152H1680.42V4.391H1715.35ZM1843.78 4.391L1840.38 31.229H1803.95V152H1769.02V31.229H1730.89V4.391H1843.78ZM1948.38 4.391L1944.75 29.312H1892.78V64.67H1938.15V89.165H1892.78V126.866H1948.38V152H1857.85V4.391H1948.38Z" fill="#333333"/>
</svg>
