<svg width="1313" height="247" viewBox="0 0 1313 247" fill="none" xmlns="http://www.w3.org/2000/svg">
<path opacity="0.05" d="M47.799 4.09999H191.299V205H147.101V43.993H89.127V59.204C89.127 98.4273 86.7353 128.849 81.952 150.47C77.36 172.091 70.5677 187.015 61.575 195.242C52.5823 203.469 40.05 207.583 23.978 207.583C14.9853 207.583 7.23633 206.722 0.731 205L3.601 168.551C6.27967 168.934 8.57567 169.125 10.489 169.125C16.9943 169.125 22.256 167.786 26.274 165.107C30.4833 162.237 34.31 156.593 37.754 148.174C41.3893 139.755 43.9723 127.223 45.503 110.577C47.0337 93.7397 47.799 72.119 47.799 45.715V4.09999ZM413.363 178.309C393.082 198.399 367.634 208.444 337.021 208.444C306.408 208.444 280.96 198.399 260.679 178.309C240.589 158.219 230.544 133.633 230.544 104.55C230.544 75.6587 240.685 51.168 260.966 31.078C281.439 10.7967 306.982 0.655996 337.595 0.655996C368.208 0.655996 393.56 10.701 413.65 30.791C433.931 50.881 444.072 75.4673 444.072 104.55C444.072 133.441 433.836 158.028 413.363 178.309ZM293.971 149.322C305.451 161.567 319.992 167.69 337.595 167.69C355.198 167.69 369.643 161.663 380.932 149.609C392.221 137.364 397.865 122.344 397.865 104.55C397.865 86.9473 392.125 72.0233 380.645 59.778C369.165 47.5327 354.624 41.41 337.021 41.41C319.418 41.41 304.973 47.5327 293.684 59.778C282.395 71.832 276.751 86.756 276.751 104.55C276.751 122.153 282.491 137.077 293.971 149.322ZM483.279 205V4.09999H527.477V91.922L608.985 4.09999H662.367L580.572 89.339L666.098 205H613.003L550.724 119.474L527.477 143.582V205H483.279ZM675.703 205L761.803 2.66499H802.557L888.657 205H842.45L824.082 159.941H739.13L720.762 205H675.703ZM754.915 120.909H808.297L781.606 55.76L754.915 120.909ZM1068.62 246.902V205H919.665V4.09999H963.863V165.107H1043.07V4.09999H1087.27V165.107H1111.09L1105.35 246.902H1068.62ZM1315.26 4.09999V205H1271.64V73.267L1183.82 205H1142.2V4.09999H1185.83V135.833L1274.22 4.09999H1315.26ZM1522.62 4.09999V205H1478.42V140.712H1443.69L1400.64 205H1348.98L1398.06 133.25C1369.36 122.535 1355.01 101.584 1355.01 70.397C1355.01 49.733 1361.7 33.5653 1375.1 21.894C1388.68 10.0313 1407.24 4.09999 1430.78 4.09999H1522.62ZM1433.65 101.68H1478.42V43.993H1434.51C1423.6 43.993 1415.09 46.4803 1408.96 51.455C1402.84 56.4297 1399.78 63.7003 1399.78 73.267C1399.78 81.877 1402.75 88.765 1408.68 93.931C1414.8 99.097 1423.12 101.68 1433.65 101.68Z" fill="#333333"/>
</svg>
